# xmcd
#
# Track frame offsets:
#	150
#	15187
#	28890
#	43592
#	54790
#	71265
#	87460
#	100190
#	111579
#	126685
#	139195
#	157862
#	176637
#	189537
#	203447
#	221027
#	234972
#	250432
#	266415
#	279115
#
# Disc length: 3926 seconds
#
# Revision: 0
# Processed by: cddbd v1.5.1PL2 Copyright (c) Steve Scherf et al.
# Submitted via: audiograbber 1.83.01
#
DISCID=150f5414
DTITLE=Varios - 20 sucessos Somzoom - vol.13
DYEAR=1900
DGENRE=
TTITLE0=Sabor de Limão - Mastruz com Leite
TTITLE1=Depois de Forró e Vaquejada - Catuaba com Amendoim
TTITLE2=Quando Você Quiser Voltar - Novinho da Paraíba
TTITLE3=Nós Pimba - Capital do Sol
TTITLE4=Pela Metade - Banda Aquárius
TTITLE5=Briga de Cachorro Grande - Pinduca
TTITLE6=Um Beijinho - Genildo and Ginaldo
TTITLE7=Peneirado - Cavalo de Pau
TTITLE8=Todo Xote É Bom - Balaio de Gatos
TTITLE9=Dó de mim - Rabo de Saia
TTITLE10=O Ricão do Cabaré - Amazan
TTITLE11=A Filha Raimunda - Cachorra da Mulesta
TTITLE12=Coisa Feita - Calango Aceso
TTITLE13=Primeiro Beijo - Mel com Terra
TTITLE14=Que Nem Doce no Tacho - Petrúcio Amorim
TTITLE15=Como Um Filme - Rita de Cássia and Redondo
TTITLE16=Pra Gente Fazer Amor - Black Banda
TTITLE17=Pout Pourri 4 - Wesley dos Teclados
TTITLE18=Vamos Fazer Amor na Rede - Sirano and Sirino
TTITLE19=Insisto em te querer - Arthur Neto
EXTD=
EXTT0=
EXTT1=
EXTT2=
EXTT3=
EXTT4=
EXTT5=
EXTT6=
EXTT7=
EXTT8=
EXTT9=
EXTT10=
EXTT11=
EXTT12=
EXTT13=
EXTT14=
EXTT15=
EXTT16=
EXTT17=
EXTT18=
EXTT19=
PLAYORDER=
